<?xml version="1.0" standalone="no"?>
<!DOCTYPE svg PUBLIC "-//W3C//DTD SVG 20010904//EN"
 "http://www.w3.org/TR/2001/REC-SVG-20010904/DTD/svg10.dtd">
<svg version="1.0" xmlns="http://www.w3.org/2000/svg"
 width="112.000000pt" height="89.000000pt" viewBox="0 0 112.000000 89.000000"
 preserveAspectRatio="xMidYMid meet">

<g transform="translate(0.000000,89.000000) scale(0.100000,-0.100000)"
fill="#000000" stroke="none">
<path d="M390 720 c-96 -72 -183 -137 -192 -145 -16 -13 -18 -39 -18 -273 0
-187 3 -261 12 -270 17 -17 749 -17 766 0 9 9 12 83 12 273 l0 260 -194 143
c-107 78 -198 142 -202 142 -5 -1 -88 -59 -184 -130z m363 -64 l157 -116 0
-230 0 -230 -335 0 -335 0 2 232 3 232 75 54 75 55 -49 -51 -50 -52 84 -85 83
-86 -86 -87 -86 -87 51 -53 51 -54 86 86 86 86 87 -87 88 -88 50 50 50 50 -81
88 -82 89 87 87 86 87 -48 47 c-26 26 -52 47 -58 47 -5 0 -45 -36 -89 -80 -44
-44 -82 -80 -85 -80 -3 0 -42 40 -88 89 l-82 89 88 65 c48 36 92 61 97 57 6
-4 81 -60 168 -124z"/>
</g>
</svg>
