<?xml version="1.0" encoding="UTF-8" standalone="no"?>
<svg
   xmlns:dc="http://purl.org/dc/elements/1.1/"
   xmlns:cc="http://creativecommons.org/ns#"
   xmlns:rdf="http://www.w3.org/1999/02/22-rdf-syntax-ns#"
   xmlns:svg="http://www.w3.org/2000/svg"
   xmlns="http://www.w3.org/2000/svg"
   xmlns:sodipodi="http://sodipodi.sourceforge.net/DTD/sodipodi-0.dtd"
   xmlns:inkscape="http://www.inkscape.org/namespaces/inkscape"
   version="1.0"
   width="177.75pt"
   height="186.91875pt"
   viewBox="0 0 177.75 186.91875"
   preserveAspectRatio="xMidYMid meet"
   id="svg913"
   sodipodi:docname="logoNoText color.svg"
   inkscape:version="1.0.1 (3bc2e813f5, 2020-09-07)">
  <metadata
     id="metadata919">
    <rdf:RDF>
      <cc:Work
         rdf:about="">
        <dc:format>image/svg+xml</dc:format>
        <dc:type
           rdf:resource="http://purl.org/dc/dcmitype/StillImage" />
        <dc:title></dc:title>
      </cc:Work>
    </rdf:RDF>
  </metadata>
  <defs
     id="defs917">
    <mask
       maskUnits="userSpaceOnUse"
       x="0"
       y="0"
       width="240"
       height="240"
       id="mask-2_1_">
      <g
         class="st1"
         id="g15">
        <circle
           id="path-1_1_"
           class="st2"
           cx="120"
           cy="120"
           r="120" />
      </g>
    </mask>
    <filter
       id="Adobe_OpacityMaskFilter"
       filterUnits="userSpaceOnUse"
       x="0"
       y="0"
       width="240"
       height="240">
      <feColorMatrix
         type="matrix"
         values="1 0 0 0 0  0 1 0 0 0  0 0 1 0 0  0 0 0 1 0"
         id="feColorMatrix9" />
    </filter>
  </defs>
  <sodipodi:namedview
     pagecolor="#ffffff"
     bordercolor="#666666"
     borderopacity="1"
     objecttolerance="10"
     gridtolerance="10"
     guidetolerance="10"
     inkscape:pageopacity="0"
     inkscape:pageshadow="2"
     inkscape:window-width="1920"
     inkscape:window-height="1017"
     id="namedview915"
     showgrid="false"
     inkscape:zoom="2.4669819"
     inkscape:cx="228.8556"
     inkscape:cy="147.18221"
     inkscape:window-x="-8"
     inkscape:window-y="-8"
     inkscape:window-maximized="1"
     inkscape:current-layer="layer2" />
  <g
     inkscape:groupmode="layer"
     id="layer2"
     inkscape:label="Layer 2"
     style="display:inline"
     transform="translate(7.790029,42.14712)">
    <g
       transform="matrix(0.225,0,0,-0.225,-48.290029,149.10288)"
       fill="#000000"
       stroke="none"
       id="g911">
      <path
         d="M 390,720 C 294,648 207,583 198,575 182,562 180,536 180,302 c 0,-187 3,-261 12,-270 17,-17 749,-17 766,0 9,9 12,83 12,273 V 565 L 776,708 C 669,786 578,850 574,850 569,849 486,791 390,720 Z m 318,-27 c 26,-18 54,-39 62,-46 8,-7 43,-35 78,-61 l 62,-47 V 309 80 H 575 240 l 2,232 3,232 165,122 165,121 43,-31 c 23,-17 63,-46 90,-63 z"
         id="path907"
         style="fill:#000080" />
      <path
         d="m 355,590 -50,-49 84,-86 84,-86 -86,-87 -86,-87 51,-53 51,-54 86,86 86,86 87,-87 88,-88 50,50 50,50 -81,88 -82,89 87,87 86,87 -48,47 c -26,26 -52,47 -57,47 -5,0 -47,-37 -93,-82 l -82,-83 -81,88 c -44,48 -84,87 -87,86 -4,0 -29,-23 -57,-49 z"
         id="path909"
         style="fill:#800000" />
    </g>
    <path
       style="fill:#ffffff;stroke-width:0.405354"
       d="m 18.409611,203.83038 c 0.144331,-14.77007 0.48189,-45.97252 0.75013,-69.33878 L 19.64745,92.007506 44.194187,73.854394 C 62.433172,60.366071 113.96753,22.508146 118.19406,19.49296 c 0.22295,-0.159048 4.14474,2.431928 8.71511,5.757723 13.10091,9.533373 21.12786,15.217487 28.7801,20.380025 8.96168,6.045943 15.21882,10.709529 26.97711,20.106646 5.13933,4.107306 15.39463,12.028054 22.78955,17.601666 l 13.4453,10.13384 0.0116,68.6061 0.0116,68.60609 H 118.53581 18.14719 Z m 167.857349,10.66704 14.96747,-14.97157 -2.26757,-2.55997 c -1.24716,-1.40799 -12.19367,-13.32211 -24.32558,-26.47584 l -22.05801,-23.91586 25.88427,-26.14531 25.88429,-26.145303 -10.04257,-9.880077 c -12.15588,-11.9592 -20.03153,-18.697352 -21.85375,-18.697352 -0.71011,0 -7.33814,5.377332 -13.52341,10.97156 -2.78681,2.520513 -12.64556,12.118784 -21.90834,21.329488 -9.26279,9.210704 -16.95419,16.746734 -17.09202,16.746734 -0.13782,0 -6.51003,-6.79474 -14.16048,-15.099418 C 82.498743,74.391783 71.439188,63.274016 69.581266,63.274016 c -1.561847,0 -10.730135,8.102172 -24.126093,21.320639 l -8.287668,8.177863 25.219258,25.759562 25.219261,25.75956 -21.161578,21.40895 c -11.638868,11.77492 -23.250177,23.53416 -25.802909,26.13162 l -4.64133,4.72268 12.722176,13.3091 c 6.997197,7.32001 13.948598,14.58887 15.447559,16.15304 l 2.725383,2.84393 25.751108,-25.73916 25.751107,-25.73915 26.04318,26.04317 c 14.32374,14.32374 26.22668,26.04317 26.45097,26.04317 0.22429,0 7.14316,-6.73721 15.37527,-14.97157 z"
       id="path960"
       transform="matrix(0.75000001,0,0,0.75000001,-7.790029,-42.14712)" />
    <path
       style="fill:#ffffff;stroke-width:0.405354"
       d="m 18.409669,203.6277 c 0.144644,-14.88154 0.481737,-46.0878 0.749094,-69.34724 l 0.486104,-42.289885 27.588181,-20.38899 c 15.1735,-11.213946 37.419922,-27.597332 49.4365,-36.407527 l 21.848312,-16.018537 7.33715,5.309683 c 4.03542,2.920325 9.92919,7.183863 13.09726,9.474527 3.16808,2.290664 9.82601,6.931125 14.79541,10.312136 11.05929,7.524364 17.10304,12.000487 27.88422,20.651627 4.57036,3.667392 14.82881,11.591301 22.79656,17.608677 l 14.4868,10.940689 0.005,68.6061 0.005,68.60609 H 118.53556 18.146678 Z m 167.857291,10.86972 14.96747,-14.97157 -2.27424,-2.55997 c -1.25084,-1.40799 -12.2,-13.32211 -24.33147,-26.47584 l -22.05722,-23.91586 25.89033,-26.14531 25.89033,-26.145303 -9.4347,-9.27263 C 184.90114,75.166674 178.5587,69.471942 174.92137,67.056886 c -2.6777,-1.777889 -2.55046,-1.820966 -8.02048,2.715362 -6.91402,5.733848 -13.39529,11.861907 -30.08401,28.444534 -9.15362,9.095428 -16.75882,16.537138 -16.90046,16.537138 -0.14164,0 -6.50092,-6.79474 -14.13174,-15.099418 C 88.567899,80.917348 71.096624,63.274016 69.758965,63.274016 c -1.620952,0 -10.540267,7.810374 -23.895497,20.924556 l -8.718632,8.561267 17.39334,17.786721 c 9.566338,9.78269 20.941293,21.37021 25.277685,25.75003 l 7.884342,7.96333 -19.794847,20.00607 c -10.887167,11.00334 -22.525023,22.77445 -25.8619,26.15801 l -6.067051,6.15195 9.320504,9.65684 c 5.126277,5.31128 12.02608,12.5298 15.332893,16.04118 3.306818,3.51137 6.119255,6.38431 6.249864,6.38431 0.130609,0 11.77401,-11.53546 25.874231,-25.63437 l 25.636763,-25.63438 26.0605,26.03973 c 14.33327,14.32186 26.23776,26.03973 26.45442,26.03973 0.21665,0 7.12927,-6.73721 15.36138,-14.97157 z"
       id="path962"
       transform="matrix(0.75000001,0,0,0.75000001,-7.790029,-42.14712)" />
  </g>
  <g
     inkscape:groupmode="layer"
     id="layer3"
     inkscape:label="Layer 1"
     transform="translate(7.790029,42.14712)" />
</svg>
