<?xml version="1.0" standalone="no"?>
<!DOCTYPE svg PUBLIC "-//W3C//DTD SVG 20010904//EN"
 "http://www.w3.org/TR/2001/REC-SVG-20010904/DTD/svg10.dtd">
<svg version="1.0" xmlns="http://www.w3.org/2000/svg"
 width="200.000000pt" height="200.000000pt" viewBox="0 0 200.000000 200.000000"
 preserveAspectRatio="xMidYMid meet">

<g transform="translate(0.000000,200.000000) scale(0.100000,-0.100000)"
fill="#000000" stroke="none">
<path d="M810 1500 c-96 -72 -183 -137 -192 -145 -16 -13 -18 -39 -18 -273 0
-187 3 -261 12 -270 17 -17 749 -17 766 0 9 9 12 83 12 273 l0 260 -194 143
c-107 78 -198 142 -202 142 -5 -1 -88 -59 -184 -130z m363 -64 l157 -116 0
-230 0 -230 -335 0 -335 0 2 232 3 232 75 54 75 55 -49 -51 -50 -52 84 -85 83
-86 -86 -87 -86 -87 51 -53 51 -54 86 86 86 86 87 -87 88 -88 50 50 50 50 -81
88 -82 89 87 87 86 87 -48 47 c-26 26 -52 47 -58 47 -5 0 -45 -36 -89 -80 -44
-44 -82 -80 -85 -80 -3 0 -42 40 -88 89 l-82 89 88 65 c48 36 92 61 97 57 6
-4 81 -60 168 -124z"/>
<path d="M100 540 c0 -82 3 -100 15 -100 11 0 15 13 15 54 0 46 3 56 20 61 32
10 40 -3 40 -61 0 -43 3 -54 16 -54 14 0 16 10 12 61 -5 67 -17 82 -60 73 -26
-5 -28 -4 -28 30 0 25 -4 36 -15 36 -12 0 -15 -18 -15 -100z"/>
<path d="M810 540 c0 -60 4 -100 10 -100 6 0 10 40 10 100 0 60 -4 100 -10
100 -6 0 -10 -40 -10 -100z"/>
<path d="M279 561 c-44 -36 -17 -131 38 -131 21 0 63 46 63 69 0 33 -21 69
-44 75 -30 8 -31 8 -57 -13z m60 -15 c17 -20 10 -77 -11 -89 -24 -16 -48 8
-48 47 0 49 34 73 59 42z"/>
<path d="M461 571 c-8 -5 -20 -7 -28 -4 -10 4 -13 -10 -13 -61 0 -37 4 -66 10
-66 6 0 10 24 10 54 0 47 3 56 22 62 30 9 48 -19 48 -73 0 -24 5 -43 10 -43 6
0 10 24 10 54 0 46 3 56 20 61 32 10 40 -3 40 -61 0 -41 4 -54 15 -54 22 0 21
103 -1 124 -18 19 -24 19 -58 6 -16 -6 -27 -6 -31 0 -8 12 -35 13 -54 1z"/>
<path d="M682 563 c-20 -18 -25 -35 -23 -80 1 -30 42 -56 75 -47 33 8 34 23 1
16 -27 -5 -55 12 -55 34 0 10 13 14 45 14 38 0 45 3 45 20 0 23 -33 60 -54 60
-8 0 -23 -8 -34 -17z m58 -23 c10 -18 8 -20 -25 -20 -37 0 -43 8 -23 28 18 18
36 15 48 -8z"/>
<path d="M895 555 c-52 -51 -9 -136 60 -119 33 8 33 23 0 16 -27 -5 -55 12
-55 34 0 8 16 14 43 16 38 3 42 5 39 28 -3 26 -26 50 -49 50 -8 0 -25 -11 -38
-25z m63 -17 c3 -14 -3 -18 -27 -18 -29 0 -41 17 -24 34 13 13 48 1 51 -16z"/>
<path d="M1038 569 c-28 -16 -22 -48 12 -67 16 -9 30 -25 30 -36 0 -15 -6 -17
-30 -14 -32 5 -41 -6 -14 -16 26 -10 63 4 70 27 6 21 -6 36 -52 63 -23 13 -10
34 22 34 14 0 22 4 19 10 -8 13 -35 12 -57 -1z"/>
<path d="M1158 569 c-29 -17 -21 -48 17 -71 42 -24 40 -44 -4 -42 -17 1 -31
-2 -31 -6 0 -14 50 -21 70 -10 31 17 24 48 -15 72 -41 23 -41 42 -2 46 15 2
25 8 22 13 -8 12 -35 11 -57 -2z"/>
<path d="M1344 571 c-2 -2 -4 -49 -4 -103 0 -80 3 -98 15 -98 10 0 15 10 15
33 0 27 4 32 26 33 14 1 34 10 45 20 24 22 26 86 3 105 -15 13 -90 20 -100 10z
m90 -43 c11 -33 -14 -78 -44 -78 -17 0 -20 7 -20 48 0 27 3 52 7 56 15 15 48
0 57 -26z"/>
<path d="M1518 573 c-29 -7 -20 -18 14 -18 43 0 51 -30 11 -40 -36 -9 -53 -23
-53 -46 0 -24 15 -32 66 -34 l44 -2 0 58 c0 78 -21 98 -82 82z m50 -95 c-3
-26 -36 -37 -49 -17 -10 17 8 39 33 39 14 0 19 -6 16 -22z"/>
<path d="M1658 569 c-20 -11 -25 -64 -8 -74 8 -5 8 -11 0 -20 -6 -7 -8 -19 -4
-28 3 -8 1 -18 -5 -22 -15 -9 -14 -21 5 -39 36 -37 124 -3 110 42 -6 18 -15
22 -47 22 -48 0 -54 25 -8 35 30 7 51 38 42 63 -3 7 3 12 13 12 9 0 14 3 10 7
-11 11 -89 13 -108 2z m57 -39 c0 -18 -6 -26 -23 -28 -24 -4 -38 18 -28 44 3
9 15 14 28 12 17 -2 23 -10 23 -28z m10 -103 c24 -18 11 -37 -25 -37 -32 0
-45 13 -36 35 7 19 36 19 61 2z"/>
<path d="M1812 564 c-19 -13 -23 -23 -20 -62 2 -39 7 -49 28 -59 15 -7 36 -10
48 -6 30 8 28 21 -3 15 -27 -5 -55 12 -55 34 0 10 13 14 45 14 38 0 45 3 45
20 0 22 -33 60 -53 60 -7 0 -23 -7 -35 -16z m56 -16 c20 -20 14 -28 -23 -28
-19 0 -35 4 -35 8 0 12 22 32 35 32 6 0 16 -5 23 -12z"/>
<path d="M1272 454 c4 -21 22 -23 26 -1 2 10 -3 17 -13 17 -10 0 -15 -6 -13
-16z"/>
</g>
</svg>
