<?xml version="1.0" standalone="no"?>
<!DOCTYPE svg PUBLIC "-//W3C//DTD SVG 20010904//EN"
 "http://www.w3.org/TR/2001/REC-SVG-20010904/DTD/svg10.dtd">
<svg version="1.0" xmlns="http://www.w3.org/2000/svg"
 width="112.000000pt" height="89.000000pt" viewBox="0 0 112.000000 89.000000"
 preserveAspectRatio="xMidYMid meet">

<g transform="translate(0.000000,89.000000) scale(0.100000,-0.100000)"
fill="#000000" stroke="none">
<path d="M390 720 c-96 -72 -183 -137 -192 -145 -16 -13 -18 -39 -18 -273 0
-187 3 -261 12 -270 17 -17 749 -17 766 0 9 9 12 83 12 273 l0 260 -194 143
c-107 78 -198 142 -202 142 -5 -1 -88 -59 -184 -130z m318 -27 c26 -18 54 -39
62 -46 8 -7 43 -35 78 -61 l62 -47 0 -230 0 -229 -335 0 -335 0 2 232 3 232
165 122 165 121 43 -31 c23 -17 63 -46 90 -63z"/>
<path d="M355 590 l-50 -49 84 -86 84 -86 -86 -87 -86 -87 51 -53 51 -54 86
86 86 86 87 -87 88 -88 50 50 50 50 -81 88 -82 89 87 87 86 87 -48 47 c-26 26
-52 47 -57 47 -5 0 -47 -37 -93 -82 l-82 -83 -81 88 c-44 48 -84 87 -87 86 -4
0 -29 -23 -57 -49z"/>
</g>
</svg>
